<?xml version="1.0" encoding="UTF-8"?>
<svg id="Layer_2" data-name="Layer 2" xmlns="http://www.w3.org/2000/svg" viewBox="0 0 87.32 8.16">
  <defs>
    <style>
      .cls-1 {
        fill: #231f20;
        stroke-width: 0px;
      }
    </style>
  </defs>
  <g id="Layer_1-2" data-name="Layer 1">
    <g>
      <path class="cls-1" d="M2.81,5.94v-2.1h5.99c.24,0,.44-.04.61-.11.16-.08.25-.24.25-.49s-.08-.42-.25-.49-.37-.11-.61-.11H3v5.28H0V.24h8.33c.6,0,1.16.04,1.69.13s.98.23,1.37.45c.39.22.7.52.92.91.22.39.34.9.34,1.51s-.11,1.1-.34,1.46c-.22.36-.53.63-.92.8-.39.18-.85.29-1.37.35-.52.06-1.09.08-1.69.08H2.81Z"/>
      <path class="cls-1" d="M12.11,7.92L17.26.24h3.34l5.2,7.68h-3.3l-4.45-6.88h1.79l-4.42,6.88h-3.3ZM14.8,6.76v-1.8h8.21v1.8h-8.21Z"/>
      <path class="cls-1" d="M24.71.24h12.48v2.28h-12.48V.24ZM29.45,2.36h3v5.56h-3V2.36Z"/>
      <path class="cls-1" d="M38.39,7.92V.24h9.28c.73,0,1.38.08,1.96.25s1.04.44,1.38.82c.34.38.51.91.51,1.57,0,.44-.08.8-.24,1.09-.16.29-.38.51-.66.67-.28.16-.6.28-.96.35-.36.07-.74.12-1.13.13l-.88-.17c.95,0,1.69.05,2.2.12.52.07.88.2,1.08.39.2.19.31.46.31.81v1.64h-3v-1.28c0-.24-.05-.42-.14-.55s-.29-.21-.6-.26c-.31-.05-.78-.07-1.42-.07h-4.69v2.16h-3ZM41.39,3.76h6.28c.24,0,.44-.04.61-.12s.25-.23.25-.46c0-.21-.08-.35-.25-.43s-.37-.11-.61-.11h-6.28v1.12Z"/>
      <path class="cls-1" d="M53.35.24h3v7.68h-3V.24Z"/>
      <path class="cls-1" d="M72.43,4.72c-.04.76-.32,1.4-.83,1.91-.51.51-1.27.9-2.26,1.15-1,.26-2.25.38-3.77.38-1.16,0-2.2-.06-3.12-.19s-1.7-.34-2.35-.64c-.65-.3-1.14-.71-1.49-1.23-.34-.52-.52-1.18-.52-1.97s.17-1.45.52-1.99c.34-.53.84-.96,1.49-1.27.65-.32,1.43-.54,2.35-.68s1.96-.2,3.12-.2c1.52,0,2.78.14,3.78.41,1,.28,1.76.68,2.27,1.22s.79,1.19.83,1.96h-3.12c-.1-.26-.27-.48-.53-.68s-.64-.35-1.15-.46c-.51-.11-1.2-.17-2.08-.17-1.02,0-1.86.06-2.5.19-.64.12-1.11.32-1.4.59-.3.27-.44.63-.44,1.08,0,.41.15.74.44,1s.76.44,1.4.56c.64.12,1.47.18,2.5.18.87,0,1.56-.05,2.07-.16.51-.1.89-.25,1.15-.43s.43-.37.53-.58h3.12Z"/>
      <path class="cls-1" d="M74,.24h3v7.68h-3V.24ZM80.4,4.14v-.67l6.92,4.45h-4.46l-5.88-4.08,5.42-3.6h4.27l-6.28,3.9Z"/>
    </g>
  </g>
</svg>